<?xml version="1.0" encoding="UTF-8"?>
<svg width="160px" height="93px" viewBox="0 0 160 93" version="1.1" xmlns="http://www.w3.org/2000/svg" xmlns:xlink="http://www.w3.org/1999/xlink">
    <!-- Generator: Sketch 57.1 (83088) - https://sketch.com -->
    <title>Logo</title>
    <desc>Created with Sketch.</desc>
    <g id="homepage" stroke="none" stroke-width="1" fill="none" fill-rule="evenodd">
        <g id="Scroll-to-reveal-header-(blue)" transform="translate(-365.000000, -19.000000)" fill="#FFFFFF">
            <g id="Nav">
                <g id="Logo" transform="translate(365.000000, 19.000000)">
                    <path d="M142.439922,37.3555184 C142.439922,37.3555184 139.27095,37.3555184 135.819418,35.6551839 C132.367473,33.9548495 125.860323,33.4986622 118.787227,44.1651505 C112.339237,53.886087 107.258125,48.6274916 98.0594182,49.1790635 C97.7205947,48.0220067 95.297117,39.4498328 94.5148028,28.5220736 C93.6729153,16.7640535 91.2035165,3.98334448 84.1341435,-1.13686838e-13 C84.1341435,-1.13686838e-13 89.2715191,5.7487893 90.4162379,20.8913043 C91.5613704,36.0325753 93.381254,46.0562542 96.0595734,48.4616054 C96.0595734,48.4616054 91.5175178,45.3719732 89.7245249,34.3695652 C87.931532,23.3671572 86.8898255,10.2418194 84.2603232,6.48449498 C84.2603232,6.48449498 84.927214,13.1091639 78.5598966,23.4832776 C72.1921655,33.8553177 73.4647188,49.3117726 91.0603749,50.4024749 C91.0603749,50.4024749 87.1293601,55.5366555 50.1566387,32.5365217 C13.1839173,9.53846154 -1.98951966e-13,26.8383278 -1.98951966e-13,26.8383278 C-1.98951966e-13,26.8383278 10.4203749,17.2911572 34.7378927,29.2934448 C59.5737815,41.5524415 73.0754234,51.8913043 78.3389787,52.9488294 C78.3389787,52.9488294 68.7145701,51.2692308 51.6608662,42.0832776 C34.607576,32.8973244 21.5750743,23.5081605 12.3660246,27.5474916 C12.3660246,27.5474916 19.3754105,27.5640803 29.188468,38.5250167 C37.3690498,47.661204 58.3636975,71.8847492 100.962379,59.6755184 C91.223788,63.0554515 70.0570394,69.8858194 58.599095,69.6286957 C54.0686231,69.5250167 54.5650679,75.7457525 53.286309,79.7892308 C52.1204913,83.4802007 46.2914027,90.7750502 40.012618,92.670301 C44.7342211,91.56301 67.2624693,91.8740468 96.410808,71.1880268 C109.199224,62.1140468 110.472191,56.3868227 119.191829,50.6595987 C124.810756,46.9727759 136.194234,45.5171237 139.893575,41.9505686 C139.893575,41.9505686 148.720776,36.8454181 159.755087,39.9101672 C159.755087,39.9101672 150.418203,36.3353177 142.439922,37.3555184" id="Fill-13"></path>
                </g>
            </g>
        </g>
    </g>
</svg>