<?xml version="1.0" encoding="UTF-8"?>
<svg viewBox="0 0 300 84" version="1.1" xmlns="http://www.w3.org/2000/svg" xmlns:xlink="http://www.w3.org/1999/xlink">
  <g stroke="none" fill-rule="evenodd" fill="#FFF">
    <path d="M105.939692,27.6142336 C105.939692,27.6142336 103.582769,27.6142336 101.015692,26.3572993 C98.4483077,25.100365 93.6086154,24.7631387 88.348,32.6481022 C83.5523077,39.8340876 79.7732308,35.9467883 72.9316923,36.3545255 C72.6796923,35.4991971 70.8772308,29.1624088 70.2953846,21.0843066 C69.6692308,12.3924526 67.8326154,2.94459854 62.5747692,0 C62.5747692,0 66.3956923,4.24966423 67.2470769,15.4434307 C68.0987692,26.6362774 69.4523077,34.0460584 71.4443077,35.8241606 C71.4443077,35.8241606 68.0661538,33.540219 66.7326154,25.4069343 C65.3990769,17.2736496 64.6243077,7.5710365 62.6686154,4.79351825 C62.6686154,4.79351825 63.1646154,9.69065693 58.4289231,17.3594891 C53.6929231,25.0267883 54.6393846,36.4526277 67.7261538,37.2589051 C67.7261538,37.2589051 64.8024615,41.0542336 37.304,24.0518978 C9.80553846,7.05109489 0,19.839635 0,19.839635 C0,19.839635 7.75015385,12.7821022 25.8363077,21.6545255 C44.308,30.7167153 54.3498462,38.3594891 58.2646154,39.1412409 C58.2646154,39.1412409 51.1064615,37.899635 38.4227692,31.1091241 C25.7393846,24.3186131 16.0464615,17.3778832 9.19723077,20.3638686 C9.19723077,20.3638686 14.4104615,20.3761314 21.7089231,28.4787591 C27.7932308,35.2324818 43.408,53.1391971 75.0907692,44.1137956 C67.8476923,46.6123358 52.1049231,51.6615328 43.5830769,51.4714599 C40.2135385,51.3948175 40.5827692,55.9933577 39.6316923,58.9824088 C38.7646154,61.7108759 34.4292308,67.1034307 29.7593846,68.5044526 C33.2710769,67.6859124 50.0264615,67.9158394 71.7055385,52.6241606 C81.2169231,45.9164234 82.1636923,41.6827007 88.6489231,37.4489781 C92.828,34.7235766 101.294462,33.6475182 104.045846,31.0110219 C104.045846,31.0110219 110.611077,27.2371533 118.817846,29.5027007 C118.817846,29.5027007 111.873538,26.860073 105.939692,27.6142336" />
    <path d="M118.072,71.8475912 C119.225846,71.8475912 120.180615,72.2246715 120.936923,72.9788321 C121.693231,73.7329927 122.072,74.6833577 122.072,75.8329927 C122.072,76.9581022 121.648923,77.9391241 120.802462,78.7821898 C116.828615,82.2556204 112.149846,83.9938686 106.766154,83.9938686 C100.817846,83.9938686 95.7415385,81.9 91.5369231,77.7091971 C87.3323077,73.5214599 85.2307692,68.4630657 85.2307692,62.5370803 C85.2307692,56.6110949 87.3323077,51.5527007 91.5369231,47.3649635 C95.7415385,43.1741606 100.817846,41.080292 106.766154,41.080292 C112.175077,41.080292 116.854154,42.8185401 120.802462,46.2919708 C121.725846,47.1074453 122.187385,48.1160584 122.187385,49.3178102 C122.187385,50.4674453 121.808615,51.4239416 121.052308,52.190365 C120.296,52.9567883 119.341231,53.34 118.187385,53.34 C117.212923,53.34 116.341846,53.0334307 115.572923,52.420292 C114.264923,51.3227737 112.893538,50.4919708 111.457538,49.9309489 C110.021538,49.369927 108.458154,49.0878832 106.766154,49.0878832 C104.894462,49.0878832 103.137538,49.440438 101.497538,50.1424818 C99.8569231,50.8445255 98.4206154,51.8010219 97.1901538,53.0150365 C95.9596923,54.2290511 94.9913846,55.6545985 94.2864615,57.2886131 C93.5815385,58.9226277 93.2289231,60.6731387 93.2289231,62.5370803 C93.2289231,64.4010219 93.5815385,66.1515328 94.2864615,67.7855474 C94.9913846,69.4226277 95.9596923,70.8451095 97.1901538,72.0591241 C98.4206154,73.2731387 99.8569231,74.229635 101.497538,74.9316788 C103.137538,75.6337226 104.894462,75.9862774 106.766154,75.9862774 C108.458154,75.9862774 110.021538,75.710365 111.457538,75.1616058 C112.893538,74.6128467 114.252308,73.7881752 115.534154,72.6906569 C116.251692,72.1541606 117.097538,71.8721168 118.072,71.8475912" />
    <path d="M136.037846,45.0656934 L136.037846,45.8321168 C137.960923,44.2992701 140.049846,43.1251095 142.306154,42.3065693 C144.561846,41.4880292 146.972308,41.080292 149.536308,41.080292 C150.664,41.080292 151.874769,41.1569343 153.170154,41.310219 C154.464,41.4635036 155.656615,41.7394161 156.746462,42.1318248 C157.835692,42.530365 158.74,43.0729927 159.457538,43.7627737 C160.175077,44.4525547 160.534769,45.3446715 160.534769,46.4452555 C160.534769,47.0062774 160.424923,47.5305109 160.207385,48.0148905 C159.989538,48.4992701 159.700923,48.9284672 159.342154,49.2994161 C158.983385,49.670365 158.560308,49.9554745 158.073538,50.1608759 C157.585846,50.3662774 157.060308,50.4674453 156.496923,50.4674453 C156.009231,50.4674453 155.444923,50.3264234 154.804615,50.0443796 C153.189231,49.4067153 151.433231,49.0878832 149.536308,49.0878832 C147.664,49.0878832 145.907692,49.440438 144.267692,50.1424818 C142.626154,50.8445255 141.197231,51.8010219 139.979385,53.0150365 C138.761538,54.2290511 137.800308,55.6545985 137.095385,57.2886131 C136.389538,58.9226277 136.037846,60.6731387 136.037846,62.5370803 L136.037846,80.0084672 C136.037846,81.1090511 135.646769,82.0471533 134.864923,82.8258394 C134.082769,83.6045255 133.140615,83.9938686 132.037846,83.9938686 C130.910154,83.9938686 129.954769,83.6045255 129.172923,82.8258394 C128.390462,82.0471533 128,81.1090511 128,80.0084672 L128,45.0656934 C128,43.9651095 128.390462,43.0270073 129.172923,42.2483212 C129.954769,41.469635 130.910154,41.080292 132.037846,41.080292 C133.140615,41.080292 134.082769,41.469635 134.864923,42.2483212 C135.646769,43.0270073 136.037846,43.9651095 136.037846,45.0656934" />
    <path d="M183.074769,49.0878832 C181.177231,49.0878832 179.408308,49.4465693 177.767692,50.1608759 C176.126769,50.8751825 174.703385,51.8408759 173.498769,53.0548905 C172.293538,54.2658394 171.338769,55.6913869 170.633846,57.3254015 C169.928,58.9594161 169.576308,60.6976642 169.576308,62.5370803 C169.576308,64.3764964 169.928,66.1116788 170.633846,67.7487591 C171.338769,69.3827737 172.293538,70.8083212 173.498769,72.0192701 C174.703385,73.2332847 176.126769,74.1989781 177.767692,74.9132847 C179.408308,75.6275912 181.177231,75.9862774 183.074769,75.9862774 C184.945538,75.9862774 186.702462,75.6275912 188.343077,74.9132847 C189.983077,74.1989781 191.412923,73.2271533 192.630769,72.0008759 C193.848615,70.7745985 194.809846,69.3521168 195.515692,67.730365 C196.219692,66.1055474 196.572923,64.3764964 196.572923,62.5370803 C196.572923,60.6976642 196.219692,58.9686131 195.515692,57.3437956 C194.809846,55.7220438 193.848615,54.299562 192.630769,53.0732847 C191.412923,51.8470073 189.983077,50.8751825 188.343077,50.1608759 C186.702462,49.4465693 184.945538,49.0878832 183.074769,49.0878832 Z M196.572923,80.0084672 L196.572923,79.2420438 C194.650154,80.7748905 192.560308,81.9490511 190.304,82.7675912 C188.048308,83.5861314 185.637846,83.9938686 183.074769,83.9938686 C177.126462,83.9938686 172.050154,81.9 167.845538,77.7091971 C163.640923,73.5214599 161.538462,68.4630657 161.538462,62.5370803 C161.538462,56.6110949 163.640923,51.5527007 167.845538,47.3649635 C172.050154,43.1741606 177.126462,41.080292 183.074769,41.080292 C188.970769,41.080292 194.047077,43.1741606 198.303077,47.3649635 C202.507692,51.5527007 204.610154,56.6110949 204.610154,62.5370803 L204.610154,80.0084672 C204.610154,81.1090511 204.218769,82.0471533 203.437231,82.8258394 C202.654769,83.6045255 201.712615,83.9938686 200.611077,83.9938686 C199.482462,83.9938686 198.527692,83.6045255 197.745846,82.8258394 C196.963385,82.0471533 196.572923,81.1090511 196.572923,80.0084672 L196.572923,80.0084672 Z" />
    <path d="M218.806462,45.0258394 C222.216,42.3954745 226.228615,41.080292 230.843385,41.080292 C233.535385,41.080292 236.092923,41.6045255 238.515077,42.649927 C240.938462,43.6983942 243.072308,45.1239416 244.918462,46.9235036 C246.764923,48.7230657 248.226154,50.8445255 249.302769,53.2848175 C250.379077,55.7220438 250.918154,58.3217518 250.918154,61.0808759 L250.918154,79.9716788 C250.918154,81.0967883 250.526769,82.0471533 249.744308,82.8258394 C248.962769,83.6045255 248.02,83.9938686 246.918154,83.9938686 C245.789538,83.9938686 244.834769,83.6045255 244.053231,82.8258394 C243.270769,82.0471533 242.880308,81.0967883 242.880308,79.9716788 L242.880308,61.0808759 C242.880308,59.4468613 242.559385,57.9017518 241.919385,56.4455474 C241.277538,54.9893431 240.412923,53.7170803 239.323077,52.6318248 C238.232923,51.5465693 236.958154,50.6851095 235.496923,50.0443796 C234.035385,49.4067153 232.484,49.0878832 230.843385,49.0878832 C229.176615,49.0878832 227.618769,49.4005839 226.170769,50.0259854 C224.722154,50.6513869 223.446462,51.5159124 222.344615,52.6134307 C221.242154,53.7109489 220.376615,54.9893431 219.748308,56.4455474 C219.12,57.9017518 218.806462,59.4468613 218.806462,61.0808759 L218.806462,79.9716788 C218.806462,81.0967883 218.415077,82.0471533 217.633538,82.8258394 C216.851077,83.6045255 215.908923,83.9938686 214.807077,83.9938686 C213.678462,83.9938686 212.723692,83.6045255 211.942154,82.8258394 C211.159692,82.0471533 210.769231,81.0967883 210.769231,79.9716788 L210.769231,45.1024818 C210.769231,44.0049635 211.159692,43.0607299 211.942154,42.2667153 C212.723692,41.4757664 213.678462,41.080292 214.807077,41.080292 C215.908923,41.080292 216.851077,41.4757664 217.633538,42.2667153 C218.415077,43.0607299 218.806462,43.980438 218.806462,45.0258394" />
    <path d="M291.418462,58.5516788 C290.982154,57.1475912 290.334769,55.8630657 289.476615,54.7011679 C288.617538,53.5392701 287.616923,52.5429197 286.476308,51.7121168 C285.336,50.8813139 284.079385,50.2375182 282.708,49.7776642 C281.336,49.3178102 279.919692,49.0878832 278.458462,49.0878832 C276.996923,49.0878832 275.574462,49.3178102 274.189538,49.7776642 C272.805846,50.2375182 271.536615,50.8813139 270.382462,51.7121168 C269.228615,52.5429197 268.228923,53.5392701 267.383077,54.7011679 C266.536615,55.8630657 265.908308,57.1475912 265.499077,58.5516788 L291.418462,58.5516788 Z M289.687692,71.9242336 C290.841538,71.9242336 291.796308,72.3013139 292.552615,73.0554745 C293.308923,73.8065693 293.687385,74.76 293.687385,75.909635 C293.687385,77.0347445 293.302769,77.9912409 292.533538,78.7821898 C288.559692,82.2556204 283.867385,83.9938686 278.458462,83.9938686 C272.510154,83.9938686 267.433846,81.9 263.229846,77.7091971 C259.024615,73.5214599 256.923077,68.4630657 256.923077,62.5370803 C256.923077,56.6110949 259.024615,51.5527007 263.229846,47.3649635 C267.433846,43.1741606 272.510154,41.080292 278.458462,41.080292 C284.355077,41.080292 289.431385,43.1741606 293.687385,47.3649635 C295.788923,49.4343066 297.365846,51.7366423 298.417846,54.2811679 C299.468,56.8226277 299.994462,59.5725547 299.994462,62.5370803 C299.994462,63.6867153 299.603385,64.6370803 298.821538,65.3912409 C298.039077,66.1454015 297.084308,66.5224818 295.956615,66.5224818 L265.499077,66.5224818 C265.934462,67.9265693 266.575385,69.2110949 267.421231,70.3729927 C268.267692,71.5348905 269.260923,72.5312409 270.401538,73.3620438 C271.542154,74.1928467 272.798769,74.8366423 274.170769,75.2964964 C275.541846,75.7563504 276.971692,75.9862774 278.458462,75.9862774 C280.150462,75.9862774 281.701846,75.7318248 283.112,75.219854 C284.521846,74.7078832 285.829231,73.9414599 287.034462,72.9205839 C287.803385,72.2829197 288.687692,71.9487591 289.687692,71.9242336 L289.687692,71.9242336 Z" />
  </g>
</svg>